<svg id="Capa_1" enable-background="new 0 0 512 512" height="512" viewBox="0 0 512 512" width="512" xmlns="http://www.w3.org/2000/svg"><g><g><path d="m414.192 296.766c-2.532-6.765-9.103-11.311-16.35-11.311h-15.282v-267.993c0-9.629-7.834-17.462-17.463-17.462h-40.929c-4.143 0-7.5 3.358-7.5 7.5s3.357 7.5 7.5 7.5h40.929c1.358 0 2.463 1.104 2.463 2.462v267.993h-20.76c.118-.819.2-1.649.2-2.5v-82.455c0-9.649-7.851-17.5-17.5-17.5h-61.259c-9.649 0-17.5 7.851-17.5 17.5v82.456c0 .851.082 1.681.2 2.5h-25.217c.118-.819.2-1.649.2-2.5v-82.456c0-9.649-7.851-17.5-17.5-17.5h-61.259c-9.649 0-17.5 7.851-17.5 17.5v16.674c0 4.142 3.357 7.5 7.5 7.5s7.5-3.358 7.5-7.5v-16.674c0-1.378 1.121-2.5 2.5-2.5h61.259c1.379 0 2.5 1.122 2.5 2.5v82.456c0 1.378-1.121 2.5-2.5 2.5h-61.259c-1.379 0-2.5-1.122-2.5-2.5v-32.791c0-4.142-3.357-7.5-7.5-7.5s-7.5 3.358-7.5 7.5v32.791c0 .851.082 1.681.2 2.5h-20.759v-267.994c0-1.358 1.104-2.462 2.462-2.462h179.611c4.143 0 7.5-3.358 7.5-7.5s-3.357-7.5-7.5-7.5h-179.612c-9.629 0-17.462 7.833-17.462 17.462v268.06c-9.017.674-16.152 8.21-16.152 17.397v191.619c0 9.629 7.833 17.462 17.462 17.462h285.835c9.629 0 17.462-7.833 17.462-17.462v-30.243c.992 1.033 1.989 2.064 2.966 3.103 3.376 3.59 7.914 5.51 12.616 5.51 1.863 0 3.754-.302 5.606-.921 6.546-2.189 11.081-7.812 11.835-14.675 3.604-32.824 6.117-97.328-17.543-160.546zm-148.451-13.81v-82.456c0-1.378 1.121-2.5 2.5-2.5h61.259c1.379 0 2.5 1.122 2.5 2.5v82.456c0 1.378-1.121 2.5-2.5 2.5h-61.259c-1.379 0-2.5-1.122-2.5-2.5zm-172.788 211.582v-137.425l139.886 139.887h-137.424c-1.358 0-2.462-1.104-2.462-2.462zm323.872-38.864c-.151 1.377-1.118 1.898-1.681 2.086-.672.224-1.659.298-2.539-.639-25.718-27.347-56.455-52.873-91.36-75.869-3.456-2.278-8.109-1.322-10.389 2.137s-1.322 8.11 2.137 10.389c26.13 17.215 49.821 35.867 70.719 55.633v45.126c0 1.358-1.104 2.462-2.462 2.462h-127.45l-160.847-161.024v-33.057c0-1.358 1.104-2.463 2.462-2.463h2.647c9.028 2.084 96.775 23.213 187.254 76.142 1.19.697 2.493 1.028 3.78 1.027 2.576 0 5.086-1.329 6.48-3.714 2.092-3.575.889-8.169-2.687-10.261-52.616-30.78-104.423-51.047-141.003-63.195h245.955c1.025 0 1.95.63 2.301 1.568 22.572 60.31 20.141 122.155 16.683 153.652z"/><path d="m144.685 457.899h-21.917c-4.143 0-7.5 3.358-7.5 7.5s3.357 7.5 7.5 7.5h21.917c4.143 0 7.5-3.358 7.5-7.5s-3.357-7.5-7.5-7.5z"/><path d="m147.165 34c-9.649 0-17.5 7.851-17.5 17.5v97.5c0 9.649 7.851 17.5 17.5 17.5h61.259c9.649 0 17.5-7.851 17.5-17.5v-97.5c0-9.649-7.851-17.5-17.5-17.5zm63.758 17.5v97.5c0 1.378-1.121 2.5-2.5 2.5h-61.259c-1.379 0-2.5-1.122-2.5-2.5v-97.5c0-1.378 1.121-2.5 2.5-2.5h61.259c1.379 0 2.5 1.122 2.5 2.5z"/><path d="m250.741 51.5v97.5c0 9.649 7.851 17.5 17.5 17.5h61.259c9.649 0 17.5-7.851 17.5-17.5v-97.5c0-9.649-7.851-17.5-17.5-17.5h-61.259c-9.65 0-17.5 7.851-17.5 17.5zm81.259 0v97.5c0 1.378-1.121 2.5-2.5 2.5h-61.259c-1.379 0-2.5-1.122-2.5-2.5v-97.5c0-1.378 1.121-2.5 2.5-2.5h61.259c1.379 0 2.5 1.122 2.5 2.5z"/></g></g></svg>